<svg width="29" height="30" viewBox="0 0 29 30" xmlns="http://www.w3.org/2000/svg">
<path d="M13.3439 0C6.56521 0 0.300845 4.04099 1.47875 13.6559C1.26889 13.8163 1.0663 13.9883 0.909814 14.201C0.299632 15.0261 0 16.0989 0 17.2518C0 18.6987 0.890404 19.8121 1.81963 20.6291C2.49895 21.2277 3.19405 21.6449 3.98013 21.8646C4.5988 23.7706 5.73789 25.3512 7.08927 26.4402C7.20949 26.5492 7.35175 26.6336 7.50729 26.688C7.66282 26.7424 7.82833 26.7657 7.99363 26.7565C8.15893 26.7474 8.32052 26.7058 8.46844 26.6346C8.61636 26.5633 8.74749 26.4638 8.85374 26.3421C8.95999 26.2204 9.03912 26.0792 9.08626 25.9271C9.1334 25.7751 9.14754 25.6154 9.12782 25.4579C9.1081 25.3004 9.05493 25.1484 8.97159 25.0113C8.88825 24.8742 8.7765 24.755 8.64323 24.6608C7.42286 23.6764 6.40266 22.362 6.02782 20.6652C5.96778 20.4089 5.81889 20.1796 5.60542 20.0148C5.39196 19.8499 5.1265 19.7593 4.85234 19.7575C5.00155 19.7575 4.06869 19.4669 3.45001 18.9219C2.83134 18.3779 2.42617 17.6957 2.42617 17.2518C2.42617 16.7125 2.56082 16.2616 2.72944 15.9083C2.8942 16.0874 3.11258 16.2137 3.35486 16.2697C3.59714 16.3258 3.85157 16.309 4.08354 16.2216C4.31551 16.1343 4.51376 15.9806 4.65131 15.7814C4.78887 15.5823 4.85906 15.3474 4.85234 15.1087V14.1278C4.85413 14.0914 4.85413 14.0549 4.85234 14.0185C4.90086 13.1899 5.01489 12.4286 5.19322 11.7313C6.86606 11.1804 8.25868 12.0741 9.70468 7.99016C11.8154 14.0022 17.2816 10.5633 21.0397 10.3878C21.4813 11.4163 21.7555 12.625 21.8355 14.0185C21.8337 14.0549 21.8337 14.0914 21.8355 14.1278V15.1087C21.8355 15.4169 21.9633 15.7125 22.1908 15.9305C22.4183 16.1484 22.7269 16.2709 23.0486 16.2709V19.1404C22.5221 19.5367 21.9386 19.7575 21.8355 19.7575C21.5614 19.7593 21.2959 19.8499 21.0824 20.0148C20.869 20.1796 20.7201 20.4089 20.66 20.6652C20.4126 21.7879 19.8618 22.7327 19.1825 23.5347C19.0805 23.6539 19.0039 23.7911 18.9573 23.9387C18.9106 24.0862 18.8948 24.2411 18.9106 24.3945C18.9264 24.5479 18.9736 24.6968 19.0495 24.8328C19.1254 24.9687 19.2285 25.089 19.3529 25.1867C19.4774 25.2845 19.6207 25.3578 19.7747 25.4025C19.9286 25.4472 20.0903 25.4624 20.2504 25.4472C20.4106 25.4321 20.566 25.3868 20.7079 25.3141C20.8498 25.2414 20.9753 25.1426 21.0773 25.0234C21.8052 24.1646 22.288 23.0407 22.6701 21.8646C23.3909 21.6902 24.0635 21.3678 24.6414 20.9197H25.4748C25.1776 22.4085 24.6305 23.5323 24.0725 24.3343C23.2839 25.4674 22.6046 25.8637 22.5561 25.8951C22.5209 25.9125 22.0903 26.1392 20.8493 26.4041C19.9031 26.6052 18.5408 26.8202 16.7175 26.912C16.4737 25.6162 15.0568 24.6248 13.3439 24.6248C11.4588 24.6248 9.93152 25.8277 9.93152 27.3118C9.93152 28.796 11.46 30 13.3439 30C14.5218 30 15.5736 29.5165 16.1874 28.8006C18.4316 28.7146 20.1372 28.4682 21.3054 28.2195C22.7441 27.9138 23.4647 27.5663 23.4647 27.5663C23.5049 27.5446 23.5434 27.5201 23.5799 27.4931C23.5799 27.4931 24.662 26.79 25.664 25.3512C26.4744 24.1867 27.2774 22.498 27.5601 20.2665C28.4432 19.6331 29 18.5976 29 17.4331V15.1087C29 13.1829 27.4836 11.6221 25.4748 11.6221H25.2855C25.2904 3.48894 19.6204 0 13.3439 0ZM23.8444 11.4768C23.8808 11.5256 23.9232 11.5698 23.9584 11.6221H23.8444C23.8347 11.5744 23.8553 11.5244 23.8444 11.4768ZM8.49159 13.9465C7.84813 13.9465 7.23103 14.1914 6.77603 14.6273C6.32104 15.0632 6.06542 15.6544 6.06542 16.2709C6.06542 16.8873 6.32104 17.4786 6.77603 17.9145C7.23103 18.3504 7.84813 18.5953 8.49159 18.5953C9.13505 18.5953 9.75216 18.3504 10.2072 17.9145C10.6621 17.4786 10.9178 16.8873 10.9178 16.2709C10.9178 15.6544 10.6621 15.0632 10.2072 14.6273C9.75216 14.1914 9.13505 13.9465 8.49159 13.9465ZM18.1963 13.9465C17.5528 13.9465 16.9357 14.1914 16.4807 14.6273C16.0257 15.0632 15.7701 15.6544 15.7701 16.2709C15.7701 16.8873 16.0257 17.4786 16.4807 17.9145C16.9357 18.3504 17.5528 18.5953 18.1963 18.5953C18.8397 18.5953 19.4568 18.3504 19.9118 17.9145C20.3668 17.4786 20.6224 16.8873 20.6224 16.2709C20.6224 15.6544 20.3668 15.0632 19.9118 14.6273C19.4568 14.1914 18.8397 13.9465 18.1963 13.9465Z" />
</svg>
