<svg width="30" height="32" viewBox="0 0 30 32" xmlns="http://www.w3.org/2000/svg">
<path fill-rule="evenodd" clip-rule="evenodd" d="M0.659668 0.45105H2.48377V29.7407H29.8452V31.6933H0.659668V0.45105ZM18.9006 7.2853C18.9006 7.02636 18.9967 6.77803 19.1678 6.59493C19.3388 6.41184 19.5708 6.30897 19.8127 6.30898H27.1091C27.351 6.30898 27.583 6.41184 27.754 6.59493C27.925 6.77803 28.0211 7.02636 28.0211 7.2853V15.0959C28.0211 15.3548 27.925 15.6031 27.754 15.7862C27.583 15.9693 27.351 16.0722 27.1091 16.0722C26.8672 16.0722 26.6352 15.9693 26.4642 15.7862C26.2931 15.6031 26.197 15.3548 26.197 15.0959V10.019L19.6066 18.6438C19.5259 18.7492 19.4255 18.8354 19.3118 18.8968C19.1982 18.9581 19.0738 18.9934 18.9466 19.0002C18.8195 19.007 18.6924 18.9852 18.5736 18.9363C18.4548 18.8874 18.3468 18.8123 18.2567 18.7161L13.5378 13.6646L6.8689 23.4805C6.72301 23.6791 6.5109 23.8094 6.27713 23.8441C6.04336 23.8787 5.80615 23.815 5.61533 23.6664C5.42451 23.5177 5.29494 23.2957 5.25386 23.0469C5.21278 22.7982 5.26338 22.542 5.39503 22.3324L12.6914 11.5928C12.7689 11.4786 12.8685 11.3837 12.9835 11.3147C13.0985 11.2457 13.2261 11.2042 13.3575 11.1931C13.4889 11.182 13.6211 11.2015 13.7448 11.2502C13.8685 11.299 13.9808 11.3759 14.0741 11.4757L18.8332 16.5721L25.1847 8.26162H19.8127C19.5708 8.26162 19.3388 8.15875 19.1678 7.97566C18.9967 7.79256 18.9006 7.54423 18.9006 7.2853Z" />
</svg>
