<svg width="27" height="24" viewBox="0 0 27 24" xmlns="http://www.w3.org/2000/svg">
<path d="M9.87492 16C6.64867 16 0.208252 17.7867 0.208252 21.3333V24H19.5416V21.3333C19.5416 17.7867 13.1012 16 9.87492 16ZM2.62492 21.3333C2.89075 20.3733 6.6245 18.6667 9.87492 18.6667C13.1374 18.6667 16.8833 20.3867 17.1249 21.3333H2.62492ZM4.72742 8H5.04159C5.04159 10.9467 7.2045 13.3333 9.87492 13.3333C12.5453 13.3333 14.7083 10.9467 14.7083 8H15.0224C15.3487 8 15.6145 7.70667 15.6145 7.34667V7.32C15.6145 7.14673 15.5521 6.98055 15.4411 6.85802C15.33 6.7355 15.1795 6.66667 15.0224 6.66667H14.7083C14.7083 4.69333 13.7295 3 12.2916 2.06667V3.33333C12.2916 3.70667 12.0258 4 11.6874 4C11.3491 4 11.0833 3.70667 11.0833 3.33333V1.52C10.6966 1.41333 10.2978 1.33333 9.87492 1.33333C9.452 1.33333 9.05325 1.41333 8.66659 1.52V3.33333C8.66659 3.70667 8.40075 4 8.06242 4C7.72409 4 7.45825 3.70667 7.45825 3.33333V2.06667C6.02034 3 5.04159 4.69333 5.04159 6.66667H4.72742C4.64966 6.66667 4.57267 6.68357 4.50084 6.7164C4.429 6.74923 4.36373 6.79736 4.30875 6.85802C4.25377 6.91869 4.21016 6.99071 4.18041 7.06998C4.15065 7.14925 4.13534 7.2342 4.13534 7.32V7.36C4.13534 7.70667 4.40117 8 4.72742 8ZM12.2916 8C12.2916 9.46667 11.2041 10.6667 9.87492 10.6667C8.54575 10.6667 7.45825 9.46667 7.45825 8H12.2916ZM25.5591 4.30667L26.6828 3.2L25.7766 1.46667L24.3387 1.98667C24.1695 1.84 23.9762 1.72 23.7708 1.62667L23.4687 0H21.6562L21.3541 1.62667C21.1487 1.72 20.9553 1.84 20.7741 1.98667L19.3483 1.46667L18.442 3.2L19.5658 4.30667C19.5416 4.53333 19.5416 4.77333 19.5658 5L18.442 6.13333L19.3483 7.86667L20.7983 7.36C20.9553 7.49333 21.1366 7.6 21.3178 7.69333L21.6562 9.33333H23.4687L23.7949 7.70667C23.9883 7.61333 24.1574 7.50667 24.3266 7.37333L25.7645 7.88L26.6708 6.14667L25.547 5.01333C25.5833 4.76 25.5712 4.53333 25.5591 4.30667ZM22.5624 6.33333C22.1618 6.33333 21.7777 6.15774 21.4944 5.84518C21.2111 5.53262 21.052 5.10869 21.052 4.66667C21.052 4.22464 21.2111 3.80072 21.4944 3.48816C21.7777 3.17559 22.1618 3 22.5624 3C22.963 3 23.3472 3.17559 23.6304 3.48816C23.9137 3.80072 24.0728 4.22464 24.0728 4.66667C24.0728 5.10869 23.9137 5.53262 23.6304 5.84518C23.3472 6.15774 22.963 6.33333 22.5624 6.33333ZM22.4416 10.3867L21.4145 10.76C21.2937 10.6533 21.1608 10.5733 21.0158 10.5067L20.7983 9.33333H19.5053L19.2878 10.4933C19.1428 10.56 18.9978 10.6533 18.877 10.7467L17.862 10.3733L17.2095 11.6133L18.007 12.4C17.9949 12.5733 17.9949 12.7333 18.007 12.8933L17.2095 13.7067L17.862 14.9467L18.9012 14.5867C19.022 14.68 19.1428 14.76 19.2758 14.8267L19.4933 16H20.7862L21.0158 14.84C21.1487 14.7733 21.2816 14.6933 21.4024 14.6L22.4295 14.96L23.082 13.72L22.2845 12.9067C22.2966 12.7333 22.2966 12.5733 22.2845 12.4133L23.082 11.6267L22.4416 10.3867ZM20.1458 13.8533C19.5537 13.8533 19.0703 13.32 19.0703 12.6667C19.0703 12.0133 19.5537 11.48 20.1458 11.48C20.7378 11.48 21.2212 12.0133 21.2212 12.6667C21.2212 13.32 20.7378 13.8533 20.1458 13.8533Z" />
</svg>
