<svg width="29" height="24" viewBox="0 0 29 24" xmlns="http://www.w3.org/2000/svg">
<path d="M28.9061 11.5691L25.4282 3.93344C25.3389 3.73718 25.1904 3.56991 25.001 3.45239C24.8116 3.33488 24.5897 3.27229 24.3628 3.27241H20.8849V1.0908C20.8849 0.801504 20.7627 0.524055 20.5453 0.319489C20.3279 0.114924 20.033 0 19.7256 0H1.17668V2.18161H18.5663V15.8777C18.038 16.1664 17.5757 16.5505 17.206 17.0081C16.8363 17.4656 16.5665 17.9875 16.4123 18.5437H9.12719C8.84502 17.5154 8.17397 16.6193 7.23983 16.0232C6.30569 15.4272 5.17258 15.1722 4.05291 15.306C2.93324 15.4398 1.90387 15.9533 1.15775 16.7501C0.411637 17.547 0 18.5725 0 19.6345C0 20.6964 0.411637 21.722 1.15775 22.5188C1.90387 23.3156 2.93324 23.8291 4.05291 23.9629C5.17258 24.0967 6.30569 23.8417 7.23983 23.2457C8.17397 22.6497 8.84502 21.7535 9.12719 20.7253H16.4123C16.6645 21.6614 17.2412 22.4918 18.0513 23.0849C18.8613 23.678 19.8584 24 20.8849 24C21.9113 24 22.9084 23.678 23.7185 23.0849C24.5285 22.4918 25.1053 21.6614 25.3575 20.7253H27.8407C28.1482 20.7253 28.443 20.6103 28.6604 20.4058C28.8779 20.2012 29 19.9238 29 19.6345V11.9988C29.0001 11.8511 28.9681 11.7048 28.9061 11.5691ZM4.65459 21.8161C4.19601 21.8161 3.74773 21.6881 3.36644 21.4484C2.98515 21.2087 2.68796 20.868 2.51247 20.4693C2.33698 20.0707 2.29107 19.632 2.38053 19.2089C2.47 18.7857 2.69082 18.3969 3.01509 18.0918C3.33935 17.7867 3.75249 17.579 4.20225 17.4948C4.65202 17.4106 5.11821 17.4538 5.54188 17.6189C5.96555 17.784 6.32767 18.0637 6.58244 18.4224C6.83722 18.7812 6.9732 19.203 6.9732 19.6345C6.97259 20.2129 6.72811 20.7675 6.29342 21.1765C5.85873 21.5855 5.26934 21.8155 4.65459 21.8161ZM20.8849 5.45402H23.5976L26.0832 10.908H20.8849V5.45402ZM20.8849 21.8161C20.4263 21.8161 19.978 21.6881 19.5967 21.4484C19.2154 21.2087 18.9182 20.868 18.7427 20.4693C18.5673 20.0707 18.5213 19.632 18.6108 19.2089C18.7003 18.7857 18.9211 18.3969 19.2454 18.0918C19.5696 17.7867 19.9828 17.579 20.4325 17.4948C20.8823 17.4106 21.3485 17.4538 21.7722 17.6189C22.1958 17.784 22.5579 18.0637 22.8127 18.4224C23.0675 18.7812 23.2035 19.203 23.2035 19.6345C23.2029 20.2129 22.9584 20.7675 22.5237 21.1765C22.089 21.5855 21.4996 21.8155 20.8849 21.8161ZM26.6814 18.5437H25.3575C25.1021 17.6093 24.5244 16.7811 23.715 16.1889C22.9056 15.5967 21.9102 15.2739 20.8849 15.2713V13.0896H26.6814V18.5437Z"/>
</svg>
